<svg id="레이어_1" data-name="레이어 1" xmlns="http://www.w3.org/2000/svg" viewBox="0 0 1417.32 1417.32"><defs><style>.cls-1{fill:#989898;}.cls-1,.cls-2,.cls-3,.cls-5,.cls-6{stroke:#231815;stroke-miterlimit:10;}.cls-1,.cls-2,.cls-3{stroke-width:1.5px;}.cls-2{fill:#fff;}.cls-3{fill:#cbcbcb;}.cls-4{font-size:25.08px;fill:#231815;font-family:ChalkboardSE-Regular, Chalkboard SE;}.cls-5{fill:#ad3f3e;}.cls-6{fill:#f7c8c9;}.cls-7{fill:#ea6263;}</style></defs><ellipse class="cls-1" cx="708.96" cy="798.44" rx="392.07" ry="102.54"/><ellipse class="cls-2" cx="708.75" cy="730.17" rx="568.97" ry="147.56"/><ellipse class="cls-3" cx="708.96" cy="731.92" rx="414.75" ry="109.89"/><ellipse class="cls-2" cx="708.96" cy="749.88" rx="392.07" ry="91.93"/><text class="cls-4" transform="matrix(0.91, -0.19, 0.2, 0.98, 436.81, 634.94)">R</text><text class="cls-4" transform="matrix(0.92, -0.18, 0.19, 0.98, 451.04, 632.02)"> </text><text class="cls-4" transform="translate(459.8 630.32) rotate(-10.43) scale(0.93 1)"> </text><text class="cls-4" transform="translate(468.56 628.71) rotate(-9.93) scale(0.93 1)"> </text><text class="cls-4" transform="translate(477.33 627.17) rotate(-9.44) scale(0.93 1)"> </text><text class="cls-4" transform="translate(486.13 625.71) rotate(-8.97) scale(0.93 1)"> </text><text class="cls-4" transform="matrix(0.92, -0.14, 0.15, 0.99, 494.91, 624.32)"> </text><text class="cls-4" transform="translate(503.73 623) rotate(-8.08) scale(0.93 1)"> </text><text class="cls-4" transform="translate(510.98 621.95) rotate(-7.58) scale(0.93 1)">A</text><text class="cls-4" transform="matrix(0.93, -0.11, 0.12, 0.99, 525.89, 619.98)"> </text><text class="cls-4" transform="translate(534.72 618.89) rotate(-6.62) scale(0.93 1)"> </text><text class="cls-4" transform="translate(543.59 617.86) rotate(-6.23) scale(0.93 1)"> </text><text class="cls-4" transform="translate(552.47 616.9) rotate(-5.84) scale(0.93 1)"> </text><text class="cls-4" transform="translate(561.33 615.99) rotate(-5.47) scale(0.93 1)"> </text><text class="cls-4" transform="translate(570.21 615.14) rotate(-5.1) scale(0.93 1)"> </text><text class="cls-4" transform="translate(579.08 614.35) rotate(-4.73) scale(0.93 1)"> </text><text class="cls-4" transform="translate(587.96 613.6) rotate(-4.26) scale(0.93 1)">R</text><text class="cls-4" transform="translate(602.49 612.53) rotate(-3.8) scale(0.93 1)"> </text><text class="cls-4" transform="translate(611.39 611.94) rotate(-3.46) scale(0.93 1)"> </text><text class="cls-4" transform="translate(620.29 611.4) rotate(-3.12) scale(0.93 1)"> </text><text class="cls-4" transform="translate(629.21 610.91) rotate(-2.78) scale(0.93 1)"> </text><text class="cls-4" transform="translate(638.12 610.48) rotate(-2.45) scale(0.93 1)"> </text><text class="cls-4" transform="translate(647.03 610.1) rotate(-2.12) scale(0.93 1)"> </text><text class="cls-4" transform="matrix(0.93, -0.03, 0.03, 1, 655.94, 609.77)"> </text><text class="cls-4" transform="matrix(0.93, -0.02, 0.02, 1, 664.84, 609.48)">E</text><text class="cls-4" transform="matrix(0.93, -0.02, 0.02, 1, 677.6, 609.17)"> </text><text class="cls-4" transform="matrix(0.93, -0.01, 0.01, 1, 686.53, 609.02)"> </text><text class="cls-4" transform="translate(695.43 608.91) rotate(-0.38) scale(0.93 1)"> </text><text class="cls-4" transform="translate(704.38 608.86) rotate(-0.26) scale(0.93 1)"> </text><text class="cls-4" transform="matrix(0.93, 0, 0, 1, 713.29, 608.83)"> </text><text class="cls-4" transform="translate(722.19 608.87) rotate(0.56) scale(0.93 1)"> </text><text class="cls-4" transform="translate(731.14 608.96) rotate(0.87) scale(0.93 1)"> </text><text class="cls-4" transform="translate(740.04 609.1) rotate(1.19) scale(0.93 1)"> </text><text class="cls-4" transform="translate(748.96 609.27) rotate(1.59) scale(0.93 1)">B</text><text class="cls-4" transform="translate(762.26 609.65) rotate(2) scale(0.93 1)"> </text><text class="cls-4" transform="matrix(0.93, 0.04, -0.04, 1, 771.19, 609.96)"> </text><text class="cls-4" transform="matrix(0.93, 0.04, -0.05, 1, 780.08, 610.32)"> </text><text class="cls-4" transform="translate(789.01 610.74) rotate(2.99) scale(0.93 1)"> </text><text class="cls-4" transform="matrix(0.93, 0.05, -0.06, 1, 797.91, 611.2)"> </text><text class="cls-4" transform="translate(806.8 611.72) rotate(3.67) scale(0.93 1)"> </text><text class="cls-4" transform="translate(815.71 612.29) rotate(4.02) scale(0.93 1)"> </text><text class="cls-4" transform="translate(824.59 612.91) rotate(4.44) scale(0.93 1)">E</text><text class="cls-4" transform="matrix(0.93, 0.08, -0.09, 1, 837.32, 613.9)"> </text><text class="cls-4" transform="translate(846.21 614.66) rotate(5.25) scale(0.93 1)"> </text><text class="cls-4" transform="translate(855.08 615.48) rotate(5.62) scale(0.93 1)"> </text><text class="cls-4" transform="translate(863.95 616.35) rotate(6) scale(0.93 1)"> </text><text class="cls-4" transform="translate(872.82 617.28) rotate(6.39) scale(0.93 1)"> </text><text class="cls-4" transform="translate(881.68 618.27) rotate(6.78) scale(0.93 1)"> </text><text class="cls-4" transform="translate(890.54 619.33) rotate(7.19) scale(0.93 1)"> </text><text class="cls-4" transform="translate(899.38 620.43) rotate(7.7) scale(0.93 1)">E</text><text class="cls-4" transform="translate(912.02 622.15) rotate(8.22) scale(0.93 1)"> </text><text class="cls-4" transform="matrix(0.92, 0.14, -0.15, 0.99, 920.83, 623.42)"> </text><text class="cls-4" transform="matrix(0.92, 0.15, -0.16, 0.99, 929.64, 624.77)"> </text><text class="cls-4" transform="translate(938.43 626.18) rotate(9.6) scale(0.93 1)"> </text><text class="cls-4" transform="matrix(0.92, 0.16, -0.18, 0.98, 947.23, 627.67)"> </text><text class="cls-4" transform="translate(955.99 629.23) rotate(10.6) scale(0.93 1)"> </text><text class="cls-4" transform="translate(964.75 630.87) rotate(11.14) scale(0.93 1)"> </text><text class="cls-4" transform="translate(973.48 632.57) rotate(11.78) scale(0.93 1)">F</text><path class="cls-5" d="M994.86,791.3c-23.42,34.45-212.43,41.28-345.2,29.46-112.65-10-171.55-18.68-198.6-46.85a57.74,57.74,0,0,1-11.86-17.66L429,694.76c34-5.71,61.47-8.77,80.63-10.53,19.69-1.8,24.15-1.79,41.37-3.76,35.55-4.08,47.13-7.82,81.5-7.11,26.11.54,80.47,1.67,127.26,17.92,43.66,15.17,41,32,62,43.76a115.79,115.79,0,0,0,21.64,7.9c29.25,7.9,85.69,3.62,149.26-12.88a387.09,387.09,0,0,1,2.7,44.7C995.38,784.77,995.85,789.86,994.86,791.3Z"/><path class="cls-6" d="M990.73,743c-23.42,34.45-212.43,41.28-345.2,29.45-68.69-6.12-159.9-13.48-198.6-46.84C439.32,719,418,697.92,434.31,674.1c15.71-23,56.63-34.21,71.22-38.21C551.81,623.2,597.37,624.37,628.4,625c26.11.54,80.47,1.67,127.26,17.93,54.72,19,36.66,40.56,83.6,51.65,46.26,10.93,82-4.84,119.15,7.82C983.45,711,1000,729.28,990.73,743Z"/><path class="cls-7" d="M674.19,675.07c1.06,17.78-35,33.09-44.76,37.22C612.16,719.61,593,723.41,568.56,723c-48.12-.78-110-17.68-110.14-36.44-.08-12.37,26.67-24.88,47.72-27.57,22.32-2.86,27.15,6.73,50.31,4.19,26-2.86,28.57-15.93,51.36-18.87C637.77,640.46,673.18,657.93,674.19,675.07Z"/><path class="cls-7" d="M959.85,726c.25,3.76-2.86,9.32-18.74,16.87-3.86,3-23.47,17.8-48,13.13-22.34-4.25-43.5-23.56-40.31-35.2,3.72-13.61,39.82-13.68,48.05-13.7C926.4,707,959.08,714.71,959.85,726Z"/><path class="cls-7" d="M834.59,726.18c-.35,14-15,23.27-18.69,25.64a43.42,43.42,0,0,1-6.09,3.11c-22.43,9.17-72.4,3-111.59,2.3-11.66-.22-26.16,0-46.21-3.88-29.84-5.74-31.28-12.61-31.46-14.06-.38-3.22,2.25-6.11,5.23-9.24,6.47-6.8,13.83-9.13,19.69-11.25,0,0,5.54-2,25.63-11.51,26.47-12.5,23-30.87,48.28-42.32,9.11-4.13,21.06-9.53,34.44-6.16C772,663.4,771,679.19,796.13,690.39c11.34,5.05,17.78,4.84,26.3,12.77C825.61,706.12,834.89,714.76,834.59,726.18Z"/></svg>